<svg width="32" height="32" viewBox="0 0 32 32" fill="none" xmlns="http://www.w3.org/2000/svg">
    <rect width="32" height="32" rx="8" fill="url(#gradient)" />

    <!-- Neural network connections (background) -->
    <circle cx="8" cy="12" r="1.5" fill="#60a5fa" opacity="0.6" />
    <circle cx="16" cy="8" r="1.5" fill="#60a5fa" opacity="0.6" />
    <circle cx="24" cy="12" r="1.5" fill="#60a5fa" opacity="0.6" />
    <circle cx="12" cy="20" r="1.5" fill="#60a5fa" opacity="0.6" />
    <circle cx="20" cy="20" r="1.5" fill="#60a5fa" opacity="0.6" />
    <circle cx="16" cy="24" r="1.5" fill="#60a5fa" opacity="0.6" />

    <!-- Connection lines -->
    <line x1="8" y1="12" x2="16" y2="8" stroke="#60a5fa" stroke-width="0.8" opacity="0.4" />
    <line x1="16" y1="8" x2="24" y2="12" stroke="#60a5fa" stroke-width="0.8" opacity="0.4" />
    <line x1="8" y1="12" x2="12" y2="20" stroke="#60a5fa" stroke-width="0.8" opacity="0.4" />
    <line x1="24" y1="12" x2="20" y2="20" stroke="#60a5fa" stroke-width="0.8" opacity="0.4" />
    <line x1="12" y1="20" x2="16" y2="24" stroke="#60a5fa" stroke-width="0.8" opacity="0.4" />
    <line x1="20" y1="20" x2="16" y2="24" stroke="#60a5fa" stroke-width="0.8" opacity="0.4" />

    <!-- Main brain icon -->
    <path
        d="M16 6c-2.5 0-4.5 1.2-5.5 3C9 9.5 8 10.8 8 12.5c0 1.2 0.5 2.3 1.2 3.1C9 16.8 9 17.9 9.5 18.8c0.8 1.5 2.2 2.2 3.8 2.2h1.4c1.6 0 3-0.7 3.8-2.2c0.5-0.9 0.5-2 0.3-3.2c0.7-0.8 1.2-1.9 1.2-3.1c0-1.7-1-3-2.5-3.5C20.5 7.2 18.5 6 16 6z"
        fill="white" />

    <!-- Highlight on brain -->
    <ellipse cx="14" cy="12" rx="2" ry="1.5" fill="#60a5fa" opacity="0.8" />

    <defs>
        <linearGradient id="gradient" x1="0%" y1="0%" x2="100%" y2="100%">
            <stop offset="0%" style="stop-color:#3b82f6" />
            <stop offset="100%" style="stop-color:#8b5cf6" />
        </linearGradient>
    </defs>
</svg>